<svg width="227" height="166" viewBox="0 0 227 166" fill="none" xmlns="http://www.w3.org/2000/svg">
<path fill-rule="evenodd" clip-rule="evenodd" d="M161.407 93.2263C166.668 92.9395 171.478 90.9644 175.305 87.8361C171.197 85.4259 166.464 83.9622 161.407 83.7439V93.2263ZM68.0842 107.348L76.7329 89.648V44.2109L26.8797 148.392H38.1127L68.0842 85.7587V107.348ZM94.6322 118.742L103.281 100.668V44.2111L53.4277 148.392H64.6607L94.6322 85.7589V118.742ZM116.682 47.9705C116.901 44.679 117.313 41.8417 117.854 39.4498C118.761 35.4491 119.962 32.8088 121.168 31.4659C122.458 30.0279 123.835 29.1357 125.228 28.6054C126.636 28.0697 128.111 27.8926 129.553 27.8926H205.005C209.667 27.8926 213.605 26.0982 216.837 23.0447L201.1 113.525C203.444 117.777 204.57 122.863 204.782 127.742L227 0H220.813L220.677 0.737513L220.665 0.772881C219.554 7.15861 217.456 12.9027 214.365 16.8118C211.905 19.9219 208.782 21.8322 205.005 21.8322H129.553C127.463 21.8322 125.272 22.1086 123.07 22.9472C120.853 23.7911 118.677 25.1945 116.661 27.4412C115.529 28.702 114.439 30.5423 113.5 32.953C112.561 30.5423 111.47 28.702 110.339 27.4412C108.323 25.1947 106.147 23.7911 103.93 22.9472C101.728 22.1086 99.5369 21.8322 97.4464 21.8322H21.9946C18.2176 21.8322 15.0949 19.9217 12.6353 16.8118C9.54396 12.9027 7.44557 7.15839 6.33492 0.772881L6.32311 0.737513L6.18749 0H0L23.2209 133.51L27.735 124.077L10.1628 23.0447C13.3943 26.0982 17.333 27.8926 21.9944 27.8926H97.4462C98.889 27.8926 100.364 28.0695 101.772 28.6054C103.165 29.1357 104.542 30.0279 105.832 31.4659C107.037 32.8088 108.239 35.4494 109.145 39.4498C109.687 41.8417 110.099 44.679 110.318 47.9705H110.602H116.398H116.682ZM28.4697 159.602H197.157V166H28.4697V159.602ZM188.939 110.486C194.758 110.486 199.475 118.981 199.475 129.459C199.475 139.937 194.758 148.431 188.939 148.431C183.12 148.431 178.402 139.937 178.402 129.459C178.402 118.981 183.12 110.486 188.939 110.486ZM188.939 117.915C191.652 117.915 193.851 123.083 193.851 129.459C193.851 135.834 191.652 141.002 188.939 141.002C186.226 141.002 184.026 135.834 184.026 129.459C184.026 123.083 186.226 117.915 188.939 117.915ZM165.087 110.486C169.434 110.486 173.166 115.227 174.777 121.995L169.228 123.244C168.355 120.04 166.827 117.915 165.087 117.915C162.374 117.915 160.175 123.083 160.175 129.459C160.175 135.834 162.374 141.002 165.087 141.002C166.748 141.002 168.217 139.064 169.106 136.099L174.671 137.352C173.008 143.889 169.342 148.431 165.087 148.431C159.268 148.431 154.551 139.937 154.551 129.459C154.551 118.981 159.268 110.486 165.087 110.486ZM141.659 148.392H147.178V117.445H154.656V110.797C147.831 110.797 141.006 110.797 134.181 110.797V117.445H141.659V148.392ZM107.984 110.797H113.503V135.151L123.495 110.797C125.465 110.797 127.435 110.797 129.404 110.797V148.392H123.885V125.31L114.415 148.392H107.985L107.984 110.797ZM85.2907 148.392H103.281V110.797L85.2907 148.392ZM177.179 86.1337C181.184 82.0918 183.761 76.6378 184.092 70.5865H161.407V81.3175C167.179 81.5481 172.563 83.2802 177.179 86.1337ZM184.092 67.9244C183.763 61.9082 181.213 56.4829 177.248 52.448C172.617 55.3268 167.208 57.0751 161.407 57.307V67.9244H184.092ZM175.386 50.7408C171.546 47.5742 166.705 45.5732 161.407 45.2844V54.8804C166.497 54.6607 171.259 53.1791 175.386 50.7408ZM158.74 45.2844C153.446 45.573 148.609 47.5708 144.77 50.7331C148.894 53.1726 153.653 54.656 158.74 54.8793V45.2844ZM142.907 52.4396C138.937 56.4752 136.384 61.9039 136.054 67.9244H158.74V57.3059C152.941 57.0705 147.535 55.3198 142.907 52.4396ZM136.054 70.5865C136.386 76.6422 138.966 82.0993 142.976 86.1423C147.589 83.2877 152.971 81.5529 158.74 81.3184V70.5865H136.054ZM144.851 87.8438C148.676 90.968 153.483 92.94 158.74 93.2266V83.745C153.686 83.967 148.957 85.4327 144.851 87.8438Z" fill="#3253A4"/>
</svg>
